<?xml version="1.0" encoding="utf-8"?>
<!-- Generator: Adobe Illustrator 16.0.0, SVG Export Plug-In . SVG Version: 6.00 Build 0)  -->
<!DOCTYPE svg PUBLIC "-//W3C//DTD SVG 1.1//EN" "http://www.w3.org/Graphics/SVG/1.1/DTD/svg11.dtd">
<svg version="1.1" id="Layer_1" xmlns="http://www.w3.org/2000/svg" xmlns:xlink="http://www.w3.org/1999/xlink" x="0px" y="0px"
	 width="841.89px" height="595.28px" viewBox="0 0 841.89 595.28" enable-background="new 0 0 841.89 595.28" xml:space="preserve">
<text transform="matrix(1.0742 0 0 1 241.1782 424.7695)" fill="#282662" font-family="'Comfortaa'" font-size="20.226">Sahaj Software Solutions Pvt. Ltd.</text>
<text transform="matrix(1 0 0 1 289.3535 454.4346)" fill="#282662" font-family="'Comfortaa'" font-size="20.226">http://www.sahajsoft.com</text>
<text transform="matrix(1 0 0 1 317.0669 484.0996)" fill="#282662" font-family="'Comfortaa'" font-size="20.226">info@sahajsoft.com</text>
<g>
	<linearGradient id="SVGID_1_" gradientUnits="userSpaceOnUse" x1="424.2471" y1="170.6289" x2="424.2471" y2="317.0415">
		<stop  offset="0" style="stop-color:#0082AC"/>
		<stop  offset="1" style="stop-color:#0062AF"/>
		<stop  offset="1" style="stop-color:#124083"/>
		<stop  offset="1" style="stop-color:#222A6B"/>
		<stop  offset="1" style="stop-color:#242162"/>
	</linearGradient>
	<path fill="url(#SVGID_1_)" d="M424.248,232.281c-13.946,0-26.948,4.897-36.876,12.831v-74.483l-22.22,0.013v130.043
		c7.163,1.559,14.577,3.105,22.22,4.604v-15.373c0.237-20.068,16.55-35.936,36.876-35.936c20.326,0,36.873,16.102,36.873,36.404
		v25.33c7.238,0.578,14.643,1.026,22.221,1.327v-26.657C483.104,258.181,456.867,232.281,424.248,232.281z"/>
	<linearGradient id="SVGID_2_" gradientUnits="userSpaceOnUse" x1="472.2314" y1="318.9863" x2="472.2314" y2="352.2256">
		<stop  offset="0" style="stop-color:#003C7D"/>
		<stop  offset="1" style="stop-color:#1E1958"/>
	</linearGradient>
	<path fill="url(#SVGID_2_)" d="M461.121,352.226h22.221v-31.912c-7.578-0.3-14.982-0.749-22.221-1.327V352.226z"/>
	<linearGradient id="SVGID_3_" gradientUnits="userSpaceOnUse" x1="685.0254" y1="258.4648" x2="685.0254" y2="352.2261">
		<stop  offset="0" style="stop-color:#003C7D"/>
		<stop  offset="1" style="stop-color:#1E1958"/>
	</linearGradient>
	<path fill="url(#SVGID_3_)" d="M692.352,267.387v26.501c0,20.303-16.545,36.404-36.873,36.404v21.933
		c32.621,0,59.094-26.132,59.094-58.337v-35.424C692.352,267.387,714.572,258.465,692.352,267.387z"/>
	<linearGradient id="SVGID_4_" gradientUnits="userSpaceOnUse" x1="270.9194" y1="232.2812" x2="270.9194" y2="292.5967">
		<stop  offset="0" style="stop-color:#0082AC"/>
		<stop  offset="1" style="stop-color:#0062AF"/>
		<stop  offset="1" style="stop-color:#124083"/>
		<stop  offset="1" style="stop-color:#222A6B"/>
		<stop  offset="1" style="stop-color:#242162"/>
	</linearGradient>
	<path fill="url(#SVGID_4_)" d="M269.731,252.444c20.812,0,37.925,15.834,39.953,36.11c7.433,1.464,14.003,2.857,19.395,4.042
		v-2.212c0-32.203-26.002-58.103-58.858-58.103c-27.872,0-51.242,18.912-57.459,44.503c6.514,0.142,13.093,0.497,19.663,0.961
		C238.33,262.926,252.801,252.444,269.731,252.444z"/>
	<linearGradient id="SVGID_5_" gradientUnits="userSpaceOnUse" x1="278.8008" y1="280.0303" x2="278.8008" y2="352.1978">
		<stop  offset="0" style="stop-color:#003C7D"/>
		<stop  offset="1" style="stop-color:#1E1958"/>
	</linearGradient>
	<path fill="url(#SVGID_5_)" d="M328.678,298.523v-2.685c-5.25-1.151-11.619-2.502-18.809-3.924
		c0.004,0.228,0.017,0.454,0.017,0.682c0,22.18-17.978,40.158-40.155,40.158s-40.156-17.979-40.156-40.158
		c0-4.058,0.608-7.973,1.729-11.669c-6.422-0.444-12.997-0.765-19.287-0.897c-1.06,4.358-1.295,8.908-1.295,13.597
		c0,32.436,26.476,58.57,59.096,58.57c19.147,0,36.167-8.634,47.04-22.869c7.092,10.269,17.02,20.302,30.021,22.402v-21.935
		C336.005,324.193,328.678,311.594,328.678,298.523z"/>
	<linearGradient id="SVGID_6_" gradientUnits="userSpaceOnUse" x1="573.1465" y1="298.9761" x2="573.1465" y2="352.2261">
		<stop  offset="0" style="stop-color:#003C7D"/>
		<stop  offset="1" style="stop-color:#1E1958"/>
	</linearGradient>
	<path fill="url(#SVGID_6_)" d="M619.021,298.976c-6.797,2.55-13.875,4.983-21.211,7.262c-5.586,15.461-20.389,26.517-37.777,26.517
		c-11.756,0-22.33-5.053-29.678-13.106c-7.016,0.615-13.541,0.965-21.27,1.055c9.857,18.742,28.273,31.522,51.061,31.522
		c19.143,0,36.164-8.63,47.039-22.866c7.09,10.266,17.02,20.301,30.021,22.403v-21.935
		C626.449,324.285,619.172,311.895,619.021,298.976z"/>
	<linearGradient id="SVGID_7_" gradientUnits="userSpaceOnUse" x1="560.0352" y1="232.2812" x2="560.0352" y2="317.4497">
		<stop  offset="0" style="stop-color:#0082AC"/>
		<stop  offset="0.153" style="stop-color:#007BAE"/>
		<stop  offset="0.3256" style="stop-color:#0073AE"/>
		<stop  offset="0.4985" style="stop-color:#006BAD"/>
		<stop  offset="0.6695" style="stop-color:#0066AD"/>
		<stop  offset="0.8377" style="stop-color:#0062AE"/>
		<stop  offset="1" style="stop-color:#0062AF"/>
		<stop  offset="1" style="stop-color:#124083"/>
		<stop  offset="1" style="stop-color:#222A6B"/>
		<stop  offset="1" style="stop-color:#242162"/>
	</linearGradient>
	<path fill="url(#SVGID_7_)" d="M560.033,252.444c22.176,0,40.158,17.979,40.158,40.152c0,3.457-0.439,6.812-1.26,10.014
		c6.934-2.177,13.641-4.488,20.09-6.908c-0.006-0.142-0.018-0.279-0.018-0.419v-4.898c0-32.203-26.002-58.103-58.857-58.103
		c-32.621,0-59.098,25.9-59.098,58.103c0,9.778,2.42,18.973,6.674,27.065c6.875-0.079,13.559-0.394,20.082-0.895
		c-4.977-6.689-7.93-14.977-7.93-23.958C519.875,270.423,537.855,252.444,560.033,252.444z"/>
	<linearGradient id="SVGID_8_" gradientUnits="userSpaceOnUse" x1="376.2617" y1="304.2227" x2="376.2617" y2="352.2256">
		<stop  offset="0" style="stop-color:#003C7D"/>
		<stop  offset="1" style="stop-color:#1E1958"/>
	</linearGradient>
	<polyline fill="url(#SVGID_8_)" points="387.372,352.226 387.372,308.418 365.152,304.223 365.152,352.226 	"/>
	<linearGradient id="SVGID_9_" gradientUnits="userSpaceOnUse" x1="703.4619" y1="208.0303" x2="703.4619" y2="264.0747">
		<stop  offset="0" style="stop-color:#0082AC"/>
		<stop  offset="1" style="stop-color:#0062AF"/>
		<stop  offset="1" style="stop-color:#124083"/>
		<stop  offset="1" style="stop-color:#222A6B"/>
		<stop  offset="1" style="stop-color:#242162"/>
	</linearGradient>
	<path fill="url(#SVGID_9_)" d="M692.352,208.03v56.044c22.221-8.991,0,0,22.221-8.991v-38.959"/>
	<linearGradient id="SVGID_10_" gradientUnits="userSpaceOnUse" x1="703.3486" y1="170.751" x2="703.3486" y2="199.026">
		<stop  offset="0" style="stop-color:#0082AC"/>
		<stop  offset="1" style="stop-color:#0062AF"/>
		<stop  offset="1" style="stop-color:#124083"/>
		<stop  offset="1" style="stop-color:#222A6B"/>
		<stop  offset="1" style="stop-color:#242162"/>
	</linearGradient>
	<circle fill="url(#SVGID_10_)" cx="703.349" cy="184.979" r="14.048"/>
	
		<linearGradient id="SVGID_11_" gradientUnits="userSpaceOnUse" x1="127.6577" y1="179.1797" x2="132.9018" y2="281.9747" gradientTransform="matrix(0.9988 0.0486 -0.051 1.0467 25.6284 -23.2529)">
		<stop  offset="0" style="stop-color:#0082AC"/>
		<stop  offset="1" style="stop-color:#0062AF"/>
		<stop  offset="1" style="stop-color:#124083"/>
		<stop  offset="1" style="stop-color:#222A6B"/>
		<stop  offset="1" style="stop-color:#242162"/>
	</linearGradient>
	<path fill="url(#SVGID_11_)" d="M144.009,238.313c-6.889-3.773-12.234-7.816-16.034-12.128c-3.383-3.905-4.944-8.529-4.683-13.864
		c0.26-5.335,2.258-9.765,6.004-13.289c3.744-3.525,8.163-5.163,13.254-4.917c5.02,0.244,9.221,2.285,12.607,6.119
		c1.933,2.229,3.965,6.916,6.098,14.049l20.924-7.464c-2.569-10.131-5.998-17.592-10.285-22.392
		c-7.597-8.693-16.996-13.317-28.197-13.863c-11.347-0.552-21.208,3.172-29.58,11.167c-8.373,8.002-12.843,17.826-13.411,29.489
		c-0.58,11.892,2.771,22.043,10.055,30.458c7.281,8.417,17,15.096,29.155,20.044c8.473,4.157,15.54,9.507,21.2,16.048
		c0.142,0.156,0.256,0.332,0.394,0.495c8.268-0.758,16.914-1.234,25.83-1.29c-2.317-5.344-5.505-10.354-9.597-15.019
		C168.699,251.509,157.458,243.628,144.009,238.313z"/>
	<linearGradient id="SVGID_12_" gradientUnits="userSpaceOnUse" x1="138.3145" y1="280.1221" x2="138.3145" y2="352.3345">
		<stop  offset="0" style="stop-color:#003C7D"/>
		<stop  offset="1" style="stop-color:#1E1958"/>
	</linearGradient>
	<path fill="url(#SVGID_12_)" d="M164.022,281.082c3.233,4.09,5.464,8.995,6.366,14.361c0.451,2.245,0.67,4.567,0.551,6.993
		c-0.217,4.474-1.342,8.533-3.315,12.213c-5.163,10.561-15.979,17.855-28.526,17.855c-16.645,0-30.276-12.809-31.634-29.102
		c-0.472-2.629-0.809-5.474-1.008-8.541l-22.295,6.439c1.568,14.223,6.413,25.552,14.532,33.979
		c10.129,10.587,22.722,16.246,37.778,16.978c4.487,0.219,8.798-0.032,12.94-0.731c24.607-5.296,43.059-27.243,43.059-53.526
		c0-4.276-0.504-8.43-1.428-12.42c-0.875-2.793-1.371-3.68-2.236-5.458C180.115,280.129,172.079,280.469,164.022,281.082z"/>
</g>
<g>
	<text transform="matrix(1 0 0 1 736.7305 349.0098)" fill="#282662" font-family="'Comfortaa-Bold'" font-size="14.2066">TM</text>
</g>
</svg>
