<?xml version="1.0" encoding="utf-8"?>
<!-- Generator: Adobe Illustrator 16.0.0, SVG Export Plug-In . SVG Version: 6.00 Build 0)  -->
<!DOCTYPE svg PUBLIC "-//W3C//DTD SVG 1.1//EN" "http://www.w3.org/Graphics/SVG/1.1/DTD/svg11.dtd">
<svg version="1.1" id="Layer_1" xmlns="http://www.w3.org/2000/svg" xmlns:xlink="http://www.w3.org/1999/xlink" x="0px" y="0px"
	 width="674.213px" height="181.835px" viewBox="0 0 674.213 181.835" enable-background="new 0 0 674.213 181.835"
	 xml:space="preserve">
<g>
	<path fill="#FFFFFF" d="M340.088,61.771c-13.946,0-26.948,4.897-36.876,12.831V0.119l-22.22,0.013v130.043
		c7.163,1.559,14.577,3.105,22.22,4.604v-15.373c0.237-20.068,16.55-35.936,36.876-35.936c20.326,0,36.873,16.102,36.873,36.404
		v25.329c7.238,0.578,14.643,1.026,22.221,1.327v-26.656C398.944,87.671,372.708,61.771,340.088,61.771z"/>
	<path fill="#FFFFFF" d="M376.961,181.715h22.221v-31.912c-7.578-0.3-14.982-0.749-22.221-1.327V181.715z"/>
	<path fill="#FFFFFF" d="M608.192,96.876v26.502c0,20.303-16.545,36.404-36.873,36.404v21.933c32.621,0,59.094-26.132,59.094-58.337
		V87.955C608.192,96.876,630.413,87.955,608.192,96.876z"/>
	<path fill="#FFFFFF" d="M185.571,81.934c20.812,0,37.925,15.834,39.953,36.11c7.433,1.463,14.003,2.857,19.395,4.042v-2.212
		c0-32.204-26.002-58.104-58.858-58.104c-27.872,0-51.242,18.912-57.459,44.504c6.514,0.141,13.093,0.496,19.663,0.961
		C154.17,92.416,168.642,81.934,185.571,81.934z"/>
	<path fill="#FFFFFF" d="M244.518,128.013v-2.686c-5.25-1.15-11.619-2.502-18.809-3.924c0.004,0.229,0.017,0.455,0.017,0.683
		c0,22.18-17.978,40.158-40.155,40.158s-40.156-17.979-40.156-40.158c0-4.058,0.608-7.974,1.729-11.669
		c-6.422-0.443-12.997-0.765-19.287-0.897c-1.06,4.358-1.295,8.907-1.295,13.597c0,32.436,26.476,58.57,59.096,58.57
		c19.147,0,36.167-8.634,47.04-22.869c7.092,10.269,17.02,20.302,30.021,22.402v-21.935
		C251.846,153.683,244.518,141.083,244.518,128.013z"/>
	<path fill="#FFFFFF" d="M534.862,128.466c-6.797,2.55-13.875,4.982-21.211,7.262c-5.586,15.461-20.389,26.517-37.777,26.517
		c-11.756,0-22.33-5.053-29.678-13.106c-7.016,0.615-13.541,0.965-21.27,1.055c9.857,18.742,28.273,31.522,51.061,31.522
		c19.143,0,36.164-8.63,47.039-22.866c7.09,10.266,17.02,20.301,30.021,22.403v-21.935
		C542.29,153.775,535.012,141.384,534.862,128.466z"/>
	<path fill="#FFFFFF" d="M475.874,81.934c22.176,0,40.158,17.979,40.158,40.152c0,3.456-0.439,6.812-1.26,10.014
		c6.934-2.177,13.641-4.488,20.09-6.908c-0.006-0.142-0.018-0.279-0.018-0.419v-4.898c0-32.204-26.002-58.104-58.857-58.104
		c-32.621,0-59.098,25.9-59.098,58.104c0,9.777,2.42,18.973,6.674,27.064c6.875-0.079,13.559-0.394,20.082-0.895
		c-4.977-6.689-7.93-14.977-7.93-23.958C435.715,99.913,453.696,81.934,475.874,81.934z"/>
	<polyline fill="#FFFFFF" points="303.212,181.715 303.212,137.908 280.992,133.712 280.992,181.715 	"/>
	<path fill="#FFFFFF" d="M608.192,37.52v56.044c22.221-8.991,0,0,22.221-8.991V45.614"/>
	<circle fill="#FFFFFF" cx="619.189" cy="14.469" r="14.048"/>
	<path fill="#FFFFFF" d="M59.85,67.803c-6.889-3.773-12.234-7.816-16.034-12.128c-3.383-3.905-4.944-8.529-4.683-13.864
		c0.26-5.335,2.258-9.765,6.004-13.289c3.744-3.525,8.163-5.163,13.254-4.917c5.02,0.244,9.221,2.285,12.607,6.119
		c1.933,2.229,3.965,6.916,6.098,14.049l20.924-7.464c-2.569-10.131-5.998-17.592-10.285-22.392
		C80.138,5.223,70.739,0.6,59.538,0.054c-11.347-0.552-21.208,3.172-29.58,11.167c-8.373,8.002-12.843,17.826-13.411,29.489
		c-0.58,11.892,2.771,22.043,10.055,30.458c7.281,8.417,17,15.096,29.155,20.044c8.473,4.157,15.54,9.507,21.2,16.048
		c0.142,0.155,0.256,0.332,0.394,0.495c8.268-0.758,16.914-1.234,25.83-1.29c-2.317-5.344-5.505-10.354-9.597-15.019
		C84.539,80.999,73.298,73.118,59.85,67.803z"/>
	<path fill="#FFFFFF" d="M79.863,110.572c3.233,4.09,5.464,8.994,6.366,14.361c0.451,2.244,0.67,4.566,0.551,6.992
		c-0.217,4.474-1.342,8.533-3.315,12.213c-5.163,10.561-15.979,17.855-28.526,17.855c-16.645,0-30.276-12.809-31.634-29.102
		c-0.472-2.629-0.809-5.475-1.008-8.541L0,130.791c1.568,14.223,6.413,25.552,14.532,33.979
		c10.129,10.587,22.722,16.246,37.778,16.978c4.487,0.219,8.798-0.032,12.94-0.731c24.607-5.296,43.059-27.243,43.059-53.526
		c0-4.275-0.504-8.43-1.428-12.42c-0.875-2.793-1.371-3.68-2.236-5.458C95.955,109.619,87.919,109.958,79.863,110.572z"/>
</g>
<g>
	<text transform="matrix(1 0 0 1 652.5708 178.4995)" fill="#FFFFFF" font-family="'Comfortaa-Bold'" font-size="14.2066">TM</text>
</g>
</svg>
